<svg xmlns="http://www.w3.org/2000/svg" width="36" height="33.751" viewBox="0 0 36 33.751">
  <path id="__TEMP__SVG__" d="M32.625,18a5.222,5.222,0,0,1-1.652-.563q-1.23-.563-2.672-1.125a6.966,6.966,0,0,0-2.426-.563,4.523,4.523,0,0,0-2.039.58,16.887,16.887,0,0,0-2.25,1.406q-1.125.826-2.338,1.652a13.253,13.253,0,0,1-2.725,1.406,8.388,8.388,0,0,1-3.023.58,5.546,5.546,0,0,1-3.164-.9A2.826,2.826,0,0,1,9,18a2.966,2.966,0,0,1,.756-2.021,5.019,5.019,0,0,1,1.828-1.318,11.845,11.845,0,0,1,2.549-.721,23.07,23.07,0,0,1,2.637-.334q1.16-.07,2.355-.07V13.5a1.126,1.126,0,0,1,0-2.251q-6.4,0-9.6,2.215-.1.07-.773.545t-.844.58q-.176.1-.791.422a4.858,4.858,0,0,1-1.055.422q-.44.1-1.16.211a10.414,10.414,0,0,1-1.529.1A2.829,2.829,0,0,1,.9,14.414,5.536,5.536,0,0,1,0,11.25,7.721,7.721,0,0,1,1.547,6.645,12.49,12.49,0,0,1,5.625,3.076,23.579,23.579,0,0,1,11.391.826,26.672,26.672,0,0,1,18,0a22.333,22.333,0,0,1,9.035,1.811,16.369,16.369,0,0,1,6.557,4.922A10.817,10.817,0,0,1,36,13.5a5.647,5.647,0,0,1-.914,3.041A2.788,2.788,0,0,1,32.625,18ZM16.242,22.5l4.008-1.125q0-.879,2.285-2.127A8.281,8.281,0,0,1,25.875,18a6.74,6.74,0,0,1,3.973,1.16Q31.5,20.32,31.5,21.375q0,.879-2.285,2.127a8.281,8.281,0,0,1-3.34,1.248q-.773,0-.949,1.688t-.176,7.313H22.5q0-1.758-2.074-4.957T16.594,24.75a1.562,1.562,0,0,1-.686-.756,1.635,1.635,0,0,1-.176-1.02Q15.82,22.5,16.242,22.5Z" fill="#7851a9"/>
</svg>
