<svg id="instagram" xmlns="http://www.w3.org/2000/svg" width="24.996" height="25" viewBox="0 0 24.996 25">
  <path id="Path_155" data-name="Path 155" d="M43.581,22.506H26.444a3.932,3.932,0,0,0-3.93,3.933V43.576a3.931,3.931,0,0,0,3.93,3.93H43.581a3.931,3.931,0,0,0,3.93-3.93V26.439A3.932,3.932,0,0,0,43.581,22.506ZM40.923,25.4l3.141-.007h.007a.542.542,0,0,1,.547.54v3.152a.542.542,0,0,1-.543.543l-3.137.011a.541.541,0,0,1-.543-.54l-.011-3.152A.542.542,0,0,1,40.923,25.4Zm-9.742,7.461a4.906,4.906,0,0,1,.264-.417,4.389,4.389,0,1,1-.834,2.564A4.338,4.338,0,0,1,31.181,32.859Zm13.9,9.817a2.4,2.4,0,0,1-2.4,2.4H27.344a2.4,2.4,0,0,1-2.4-2.4V32.442H28.68a6.529,6.529,0,0,0-.242.7,6.689,6.689,0,0,0-.26,1.861,6.834,6.834,0,1,0,13.408-1.861c-.071-.238-.149-.476-.242-.7h3.733Z" transform="translate(-22.514 -22.506)" fill="#fff"/>
</svg>
