<svg xmlns="http://www.w3.org/2000/svg" width="40" height="40" viewBox="0 0 40 40">
  <g id="instagram" transform="translate(0.494)">
    <circle id="Ellipse_8" data-name="Ellipse 8" cx="20" cy="20" r="20" transform="translate(-0.494)" fill="#7851a9"/>
    <path id="Path_155" data-name="Path 155" d="M39.189,22.506H25.625a3.112,3.112,0,0,0-3.111,3.114V39.184A3.111,3.111,0,0,0,25.625,42.3H39.189A3.111,3.111,0,0,0,42.3,39.184V25.62A3.112,3.112,0,0,0,39.189,22.506Zm-2.1,2.289,2.486-.006h.006a.429.429,0,0,1,.433.427v2.495a.429.429,0,0,1-.43.43L37.1,28.15a.428.428,0,0,1-.43-.427l-.009-2.495A.429.429,0,0,1,37.086,24.795ZM29.374,30.7a3.883,3.883,0,0,1,.209-.33,3.471,3.471,0,0,1,5.647,0,3.512,3.512,0,0,1,.209.333,3.449,3.449,0,0,1,.451,1.7,3.483,3.483,0,0,1-6.967,0A3.434,3.434,0,0,1,29.374,30.7Zm11,7.771a1.9,1.9,0,0,1-1.9,1.9H26.337a1.9,1.9,0,0,1-1.9-1.9v-8.1h2.955a5.168,5.168,0,0,0-.191.557A5.3,5.3,0,0,0,27,32.4a5.41,5.41,0,1,0,10.613-1.473c-.056-.189-.118-.377-.191-.557h2.955Z" transform="translate(-12.223 -13.007)" fill="#fff"/>
  </g>
</svg>
