<svg id="linkedin" xmlns="http://www.w3.org/2000/svg" width="26.162" height="25" viewBox="0 0 26.162 25">
  <g id="Group_33" data-name="Group 33" transform="translate(0 0)">
    <path id="Path_161" data-name="Path 161" d="M53.23,39.3v9.674H47.621V39.944c0-2.266-.81-3.814-2.84-3.814A3.068,3.068,0,0,0,41.9,38.181a3.839,3.839,0,0,0-.186,1.367v9.421H36.109s.075-15.286,0-16.868h5.609v2.39c-.011.019-.027.037-.037.055h.037v-.055A5.569,5.569,0,0,1,46.774,31.7c3.69,0,6.456,2.411,6.456,7.591ZM30.242,23.969a2.923,2.923,0,1,0-.074,5.829H30.2a2.924,2.924,0,1,0,.037-5.829Zm-2.84,25h5.607V32.1H27.4Z" transform="translate(-27.068 -23.969)" fill="#fff"/>
  </g>
</svg>
