<svg xmlns="http://www.w3.org/2000/svg" width="20.861" height="20.861" viewBox="0 0 20.861 20.861">
  <path id="phone" d="M5.687,11.454l-.028-.08A20.657,20.657,0,0,1,4.5,5.659,1.162,1.162,0,0,1,5.659,4.5H9.136a2.318,2.318,0,0,1,2.318,2.318V9.136a2.318,2.318,0,0,1-2.318,2.318h-.97A18.606,18.606,0,0,0,18.408,21.7v-.97a2.318,2.318,0,0,1,2.318-2.318h2.318a2.318,2.318,0,0,1,2.318,2.318V24.2A1.352,1.352,0,0,1,24.2,25.361,17.872,17.872,0,0,1,18.408,24.2,21.037,21.037,0,0,1,5.687,11.454Z" transform="translate(-4.5 -4.5)" fill="#fff"/>
</svg>
