<svg xmlns="http://www.w3.org/2000/svg" width="20.862" height="20.861" viewBox="0 0 20.862 20.861">
  <path id="send" d="M20.535.128a.727.727,0,0,1,.314.745l-2.98,17.881a.732.732,0,0,1-.373.524.713.713,0,0,1-.361.093.786.786,0,0,1-.279-.058L11.582,17.16,8.765,20.594a.686.686,0,0,1-.57.268.632.632,0,0,1-.256-.046.745.745,0,0,1-.489-.7V16.053L17.508,3.725,5.063,14.493l-4.6-1.886a.737.737,0,0,1-.093-1.327L19.743.1a.711.711,0,0,1,.373-.1.722.722,0,0,1,.419.128Z" transform="translate(0.002)" fill="#fff"/>
</svg>
