<svg id="twitter" xmlns="http://www.w3.org/2000/svg" width="30.762" height="25" viewBox="0 0 30.762 25">
  <g id="Group_29" data-name="Group 29" transform="translate(0 0)">
    <path id="Path_153" data-name="Path 153" d="M55.865,36.988a12.592,12.592,0,0,1-3.625.993,6.328,6.328,0,0,0,2.776-3.491,12.634,12.634,0,0,1-4.008,1.531,6.317,6.317,0,0,0-10.755,5.757,17.916,17.916,0,0,1-13.009-6.6A6.318,6.318,0,0,0,29.2,43.609a6.267,6.267,0,0,1-2.858-.79c0,.027,0,.054,0,.08A6.315,6.315,0,0,0,31.4,49.087a6.336,6.336,0,0,1-2.85.109,6.318,6.318,0,0,0,5.9,4.383A12.74,12.74,0,0,1,25.1,56.192a17.852,17.852,0,0,0,9.674,2.836c11.609,0,17.957-9.617,17.957-17.958,0-.273-.006-.546-.018-.816a12.8,12.8,0,0,0,3.15-3.266Z" transform="translate(-25.103 -34.028)" fill="#fff"/>
  </g>
</svg>
