<svg id="twitter" xmlns="http://www.w3.org/2000/svg" width="40" height="40" viewBox="0 0 40 40">
  <circle id="Ellipse_7" data-name="Ellipse 7" cx="20" cy="20" r="20" fill="#7851a9"/>
  <g id="Group_29" data-name="Group 29" transform="translate(7.916 10.29)">
    <path id="Path_153" data-name="Path 153" d="M49.453,36.371a9.968,9.968,0,0,1-2.87.786,5.009,5.009,0,0,0,2.2-2.763,10,10,0,0,1-3.172,1.212A5,5,0,0,0,37.1,40.162a14.181,14.181,0,0,1-10.3-5.22,5,5,0,0,0,1.546,6.67,4.961,4.961,0,0,1-2.263-.626c0,.021,0,.042,0,.063a5,5,0,0,0,4.008,4.9,5.015,5.015,0,0,1-2.256.086A5,5,0,0,0,32.5,49.5a10.085,10.085,0,0,1-7.4,2.069A14.207,14.207,0,0,0,46.975,39.6c0-.216,0-.432-.015-.646a10.131,10.131,0,0,0,2.493-2.586Z" transform="translate(-25.103 -34.028)" fill="#fff"/>
  </g>
</svg>
