<svg x="0" y="0" width="258" height="258">
<g transform="translate(0.000000,192.000000) scale(0.100000,-0.100000)"
fill="#000000" stroke="none">
<path class="tree" d="M0 960 l0 -960 960 0 960 0 0 960 0 960 -960 0 -960 0 0 -960z m1065
756 c129 -19 192 -54 255 -142 l35 -49 -61 62 c-54 55 -129 101 -142 88 -3 -3
0 -5 7 -5 7 0 10 -4 6 -10 -3 -5 -13 -7 -23 -4 -13 5 -14 4 -3 -4 8 -5 24 -9
37 -7 13 1 24 -2 24 -7 0 -5 4 -7 8 -4 4 2 13 -4 20 -15 15 -24 13 -24 -70 6
-54 20 -74 23 -84 14 -17 -14 -18 2 -1 20 10 10 1 12 -46 9 -41 -2 -57 1 -57
10 0 6 -4 12 -9 12 -5 0 -7 -10 -3 -22 5 -22 4 -22 -15 -5 -24 21 -47 22 -63
2 -11 -14 -14 -13 -25 2 -12 16 -18 16 -66 4 -69 -17 -79 -24 -50 -31 20 -5
18 -7 -18 -16 -34 -9 -39 -9 -30 2 6 8 8 14 5 14 -19 0 -55 -26 -94 -68 -24
-26 -40 -40 -36 -32 5 10 0 8 -15 -4 -28 -25 -63 -82 -67 -110 -1 -11 -10 -57
-18 -101 -18 -90 -21 -195 -6 -195 6 0 10 -7 10 -16 0 -8 -4 -12 -10 -9 -5 3
-10 0 -11 -7 -1 -7 -5 -2 -9 12 -24 75 10 284 62 381 41 76 119 149 204 189
59 29 118 40 249 49 11 0 61 -5 110 -13z"/>
</g>
</svg>
