<svg xmlns="http://www.w3.org/2000/svg" width="40" height="40" viewBox="0 0 40 40">
  <g id="instagram" transform="translate(0.494)">
    <circle id="Ellipse_8" data-name="Ellipse 8" cx="20" cy="20" r="20" transform="translate(-0.494)" fill="#263043"/>
    <path id="Path_155" data-name="Path 155" d="M35.209,22.506H24.882a2.369,2.369,0,0,0-2.368,2.37V35.2a2.369,2.369,0,0,0,2.368,2.368H35.209A2.369,2.369,0,0,0,37.577,35.2V24.876A2.369,2.369,0,0,0,35.209,22.506Zm-1.6,1.742,1.893,0h0a.326.326,0,0,1,.33.325v1.9a.326.326,0,0,1-.327.327l-1.89.007a.326.326,0,0,1-.327-.325l-.007-1.9A.326.326,0,0,1,33.607,24.248Zm-5.871,4.5a2.956,2.956,0,0,1,.159-.251,2.645,2.645,0,1,1-.5,1.545A2.614,2.614,0,0,1,27.737,28.745ZM36.11,34.66A1.446,1.446,0,0,1,34.666,36.1H25.425a1.446,1.446,0,0,1-1.444-1.444V28.493H26.23a3.934,3.934,0,0,0-.146.424,4.031,4.031,0,0,0-.157,1.121,4.118,4.118,0,1,0,8.08-1.121c-.043-.144-.09-.287-.146-.424H36.11Z" transform="translate(-10.54 -10.038)" fill="#fff"/>
  </g>
</svg>
