<svg xmlns="http://www.w3.org/2000/svg" width="39" height="40" viewBox="0 0 39 40">
  <g id="linkedin" transform="translate(-0.311)">
    <ellipse id="Ellipse_10" data-name="Ellipse 10" cx="19.5" cy="20" rx="19.5" ry="20" transform="translate(0.311)" fill="#263043"/>
    <g id="Group_33" data-name="Group 33" transform="translate(9.956 10.493)">
      <path id="Path_161" data-name="Path 161" d="M42.779,33.173v5.809H39.411v-5.42c0-1.361-.486-2.29-1.706-2.29A1.842,1.842,0,0,0,35.978,32.5a2.305,2.305,0,0,0-.112.821v5.658H32.5s.045-9.18,0-10.13h3.369v1.436c-.007.011-.016.022-.022.033h.022v-.033A3.344,3.344,0,0,1,38.9,28.614c2.216,0,3.877,1.448,3.877,4.559Zm-13.805-9.2a1.755,1.755,0,1,0-.044,3.5h.022a1.756,1.756,0,1,0,.022-3.5ZM27.268,38.983h3.367V28.852H27.268Z" transform="translate(-25.068 -21.969)" fill="#fff"/>
    </g>
  </g>
</svg>
