<svg id="twitter" xmlns="http://www.w3.org/2000/svg" width="40" height="40" viewBox="0 0 40 40">
  <circle id="Ellipse_7" data-name="Ellipse 7" cx="20" cy="20" r="20" fill="#263043"/>
  <g id="Group_29" data-name="Group 29" transform="translate(10.769 12.499)">
    <path id="Path_153" data-name="Path 153" d="M43.564,35.8a7.557,7.557,0,0,1-2.175.6,3.8,3.8,0,0,0,1.666-2.1,7.582,7.582,0,0,1-2.405.919,3.791,3.791,0,0,0-6.454,3.455,10.751,10.751,0,0,1-7.807-3.958,3.792,3.792,0,0,0,1.172,5.057,3.761,3.761,0,0,1-1.715-.474c0,.016,0,.032,0,.048a3.79,3.79,0,0,0,3.038,3.713,3.8,3.8,0,0,1-1.71.066,3.792,3.792,0,0,0,3.538,2.63A7.646,7.646,0,0,1,25.1,47.329a10.771,10.771,0,0,0,16.582-9.075c0-.164,0-.328-.011-.49a7.68,7.68,0,0,0,1.89-1.96Z" transform="translate(-25.103 -34.028)" fill="#fff"/>
  </g>
</svg>
